<?xml version="1.0" encoding="utf-8"?>
<!-- Generator: Adobe Illustrator 19.0.0, SVG Export Plug-In . SVG Version: 6.00 Build 0)  -->
<svg version="1.1" id="圖層_1" xmlns="http://www.w3.org/2000/svg" xmlns:xlink="http://www.w3.org/1999/xlink" x="0px" y="0px"
	 viewBox="-261 384.9 72 72" style="enable-background:new -261 384.9 72 72;" xml:space="preserve">
<style type="text/css">
	.st0{fill:#231815;}
</style>
<g id="XMLID_23_">
	<g>
		<path class="st0" d="M-212.1,393.9v-4h-4.8v4h-16.3v-4h-4.8v4H-259v58.1h50.6l17.4-17.5v-40.5H-212.1z M-207,443.7v-7.9h7.8
			L-207,443.7z M-195.8,431h-16v16.1h-42.4v-35.5h58.4V431z M-195.8,406.8h-58.4v-8.1h16.3v4h4.8v-4h16.3v3.2h4.8v-3.2h16.3V406.8z
			 M-235.4,432.6h-8v8.1h8V432.6z M-221,432.6h-8v8.1h8V432.6z M-221,418.1h-8v8.1h8V418.1z M-206.6,418.1h-8v8.1h8V418.1z
			 M-235.4,418.1h-8v8.1h8V418.1z"/>
	</g>
</g>
</svg>
