<?xml version="1.0" encoding="utf-8"?>
<!-- Generator: Adobe Illustrator 19.0.0, SVG Export Plug-In . SVG Version: 6.00 Build 0)  -->
<svg version="1.1" id="圖層_1" xmlns="http://www.w3.org/2000/svg" xmlns:xlink="http://www.w3.org/1999/xlink" x="0px" y="0px"
	 viewBox="-261 384.9 72 72" style="enable-background:new -261 384.9 72 72;" xml:space="preserve">
<style type="text/css">
	.st0{fill:#231815;}
</style>
<path id="XMLID_10_" class="st0" d="M-191.4,400.2c-0.4-0.6-1.1-0.9-1.8-0.9h-49.1c-0.1,0-0.2,0-0.3,0l-2-6.1
	c-0.2-0.6-0.7-1.1-1.3-1.4l-10.2-4.2c-1.1-0.5-2.4,0.1-2.8,1.3c-0.4,1.2,0.1,2.5,1.2,3l9.2,3.8l11.3,34c-0.5,0.2-0.9,0.6-1.1,1.1
	l-3.3,9.5c-0.2,0.6-0.1,1.2,0.2,1.7c0.3,0.5,0.9,0.8,1.5,0.8h1.7c-1,1.2-1.7,2.8-1.7,4.6c0,3.8,2.9,6.8,6.5,6.8
	c3.6,0,6.5-3.1,6.5-6.8c0-1.8-0.6-3.3-1.7-4.6h14.3c-1,1.2-1.7,2.8-1.7,4.6c0,3.8,2.9,6.8,6.5,6.8c3.6,0,6.5-3.1,6.5-6.8
	c0-1.8-0.6-3.3-1.7-4.6h2c1,0,1.8-0.8,1.8-1.9c0-1-0.8-1.9-1.8-1.9h-34.9l2-5.9c0.3,0.1,0.5,0.2,0.8,0.2h32c0.9,0,1.8-0.6,2.1-1.6
	l9.1-29.6C-190.9,401.5-191,400.8-191.4,400.2z M-233.2,450.5c-1.6,0-2.9-1.4-2.9-3c0-1.7,1.3-3,2.9-3c1.6,0,2.9,1.4,2.9,3
	C-230.3,449.1-231.6,450.5-233.2,450.5z M-209.2,450.5c-1.6,0-2.9-1.4-2.9-3c0-1.7,1.3-3,2.9-3c1.6,0,2.9,1.4,2.9,3
	C-206.3,449.1-207.6,450.5-209.2,450.5z M-197.7,408.9h-11.1v-5.1h12.7L-197.7,408.9z M-201,419.4h-7.9v-5.9h9.7L-201,419.4z
	 M-223.3,419.4v-5.9h10.1v5.9H-223.3z M-213.2,423.9v4.9h-10.1v-4.9H-213.2z M-237.8,413.5h10.2v5.9h-8.2L-237.8,413.5z
	 M-223.3,408.9v-5.1h10.1v5.1H-223.3z M-227.7,403.8v5.1h-11.7l-1.7-5.1H-227.7z M-234.4,423.9h6.7v4.9h-5.1L-234.4,423.9z
	 M-208.9,428.9v-4.9h6.5l-1.5,4.9H-208.9z"/>
</svg>
