<?xml version="1.0" encoding="utf-8"?>
<!-- Generator: Adobe Illustrator 19.0.0, SVG Export Plug-In . SVG Version: 6.00 Build 0)  -->
<svg version="1.1" id="圖層_1" xmlns="http://www.w3.org/2000/svg" xmlns:xlink="http://www.w3.org/1999/xlink" x="0px" y="0px"
	 viewBox="-261 384.9 72 72" style="enable-background:new -261 384.9 72 72;" xml:space="preserve">
<style type="text/css">
	.st0{fill:#231815;}
</style>
<g id="XMLID_2_">
	<g>
		<path class="st0" d="M-225,386.9c-18.7,0-34,15.2-34,34c0,18.7,15.2,34,34,34c18.8,0,34-15.3,34-34
			C-191,402.1-206.3,386.9-225,386.9z M-225,450.1c-16.1,0-29.2-13.2-29.2-29.2c0-16.1,13.1-29.2,29.2-29.2
			c16.1,0,29.2,13.1,29.2,29.2C-195.8,437-208.9,450.1-225,450.1z M-215.3,420.1h-8.9v-14c0-1.3-1.1-2.4-2.4-2.4
			c-1.4,0-2.4,1.1-2.4,2.4v16.4c0,1.4,1.1,2.4,2.4,2.4h11.3c1.4,0,2.4-1.1,2.4-2.4C-212.8,421.1-213.9,420.1-215.3,420.1z"/>
	</g>
</g>
</svg>
