<?xml version="1.0" encoding="utf-8"?>
<!-- Generator: Adobe Illustrator 19.0.0, SVG Export Plug-In . SVG Version: 6.00 Build 0)  -->
<svg version="1.1" id="圖層_1" xmlns="http://www.w3.org/2000/svg" xmlns:xlink="http://www.w3.org/1999/xlink" x="0px" y="0px"
	 viewBox="0 0 72 72" style="enable-background:new 0 0 72 72;" xml:space="preserve">
<path d="M54.7,2H17.3C8.8,2,2,8.8,2,17.3v37.5C2,63.2,8.8,70,17.3,70h37.5C63.2,70,70,63.2,70,54.7V17.3C70,8.8,63.2,2,54.7,2z
	 M57.7,17.7H57c-1.7,0-3.4,0-5,0c-2.3,0.1-4,1-4.1,3.8c-0.1,2.1-0.1,6.9-0.1,6.9s5.4,0,7.8,0c0.6,0,1.2,0,1.9,0
	c-0.4,3.3-0.9,6.5-1.3,9.8h-8.3v24.5H37.7V38.2h-8.3v-9.7h8.3v-0.7c0-2,0-3.9,0-5.9c0-1.2,0.1-2.5,0.3-3.7c0.5-3,1.9-5.5,4.4-7.3
	c2.2-1.6,4.7-2.2,7.3-2.3c1.7,0,3.4,0,5.2,0.1c0.9,0,1.9,0.2,2.8,0.3V17.7z"/>
</svg>
