<?xml version="1.0" encoding="utf-8"?>
<!-- Generator: Adobe Illustrator 19.0.0, SVG Export Plug-In . SVG Version: 6.00 Build 0)  -->
<svg version="1.1" id="圖層_1" xmlns="http://www.w3.org/2000/svg" xmlns:xlink="http://www.w3.org/1999/xlink" x="0px" y="0px"
	 viewBox="0 0 72 72" style="enable-background:new 0 0 72 72;" xml:space="preserve">
<g id="TYPE_A">
	<path d="M57.6,3H14.5C7.8,3,2,8.1,2,14.8v43.1C2,64.7,7.7,70,14.4,70h43.1C64.3,70,70,64.8,70,58V14.9C70,8.2,64.4,3,57.6,3z
		 M55.3,46L55.3,46c-5.2,6-16.7,13.1-19.4,14.2c-2.6,1.1-2.2-0.8-2.1-1.4c0.1-0.4,0.4-2.1,0.4-2.1c0.1-0.6,0.2-1.6-0.1-2.2
		c-0.3-0.7-1.4-1-2.2-1.2C20,51.6,11.3,43.3,11.3,33.4c0-11,11.1-20,24.6-20c13.6,0,24.6,9.1,24.6,20.1C60.5,38,58.8,42,55.3,46z"/>
	<path id="XMLID_4_" d="M30.9,28.1h-1.7c-0.3,0-0.5,0.2-0.5,0.5v10.7c0,0.3,0.2,0.5,0.5,0.5h1.7c0.3,0,0.5-0.2,0.5-0.5V28.6
		C31.4,28.3,31.2,28.1,30.9,28.1"/>
	<path id="XMLID_3_" d="M42.8,28.1h-1.7c-0.3,0-0.5,0.2-0.5,0.5V35l-4.9-6.6c0,0,0,0,0,0c0,0,0,0,0,0c0,0,0,0,0,0c0,0,0,0,0,0
		c0,0,0,0,0,0c0,0,0,0,0,0c0,0,0,0,0,0c0,0,0,0,0,0c0,0,0,0,0,0c0,0,0,0,0,0c0,0,0,0,0,0c0,0,0,0,0,0c0,0,0,0,0,0c0,0,0,0,0,0
		c0,0,0,0,0,0c0,0,0,0,0,0c0,0,0,0,0,0c0,0,0,0,0,0c0,0,0,0,0,0h-1.7c-0.3,0-0.5,0.2-0.5,0.5v10.7c0,0.3,0.2,0.5,0.5,0.5h1.7
		c0.3,0,0.5-0.2,0.5-0.5V33l4.9,6.7c0,0,0.1,0.1,0.1,0.1c0,0,0,0,0,0c0,0,0,0,0,0c0,0,0,0,0,0c0,0,0,0,0,0c0,0,0,0,0,0c0,0,0,0,0,0
		c0,0,0,0,0,0c0,0,0,0,0,0c0,0,0.1,0,0.1,0h1.7c0.3,0,0.5-0.2,0.5-0.5V28.6C43.3,28.3,43.1,28.1,42.8,28.1"/>
	<path id="XMLID_2_" d="M26.7,37.1h-4.7v-8.5c0-0.3-0.2-0.5-0.5-0.5h-1.7c-0.3,0-0.5,0.2-0.5,0.5v10.7v0c0,0.1,0.1,0.2,0.1,0.3
		c0,0,0,0,0,0c0,0,0,0,0,0c0.1,0.1,0.2,0.1,0.3,0.1h0h6.9c0.3,0,0.5-0.2,0.5-0.5v-1.7C27.2,37.3,27,37.1,26.7,37.1"/>
	<path id="XMLID_1_" d="M52.3,30.8c0.3,0,0.5-0.2,0.5-0.5v-1.7c0-0.3-0.2-0.5-0.5-0.5h-6.9h0c-0.1,0-0.2,0.1-0.3,0.1c0,0,0,0,0,0
		c0,0,0,0,0,0C45,28.4,45,28.5,45,28.6v0v10.7v0c0,0.1,0.1,0.2,0.1,0.3c0,0,0,0,0,0c0,0,0,0,0,0c0.1,0.1,0.2,0.1,0.3,0.1h0h6.9
		c0.3,0,0.5-0.2,0.5-0.5v-1.7c0-0.3-0.2-0.5-0.5-0.5h-4.7v-1.8h4.7c0.3,0,0.5-0.2,0.5-0.5v-1.7c0-0.3-0.2-0.5-0.5-0.5h-4.7v-1.8
		H52.3z"/>
</g>
</svg>
