<?xml version="1.0" encoding="utf-8"?>
<!-- Generator: Adobe Illustrator 19.0.0, SVG Export Plug-In . SVG Version: 6.00 Build 0)  -->
<svg version="1.1" id="圖層_1" xmlns="http://www.w3.org/2000/svg" xmlns:xlink="http://www.w3.org/1999/xlink" x="0px" y="0px"
	 viewBox="-261 384.9 72 72" style="enable-background:new -261 384.9 72 72;" xml:space="preserve">
<style type="text/css">
	.st0{fill:#231815;}
</style>
<g>
	<g>
		<path class="st0" d="M-223.1,416.4c-0.7,0.7-0.7,1.9,0,2.7c3.1,3,3.1,8,0,11l-16.2,16c-3.1,3-8.1,3-11.2,0l-2.4-2.4
			c-3.1-3-3.1-8,0-11l16.2-16c0.7-0.7,0.7-1.9,0-2.7c-0.7-0.7-1.9-0.7-2.7,0l-16.2,16c-2.2,2.2-3.4,5.1-3.4,8.2c0,3.1,1.2,6,3.4,8.2
			l2.4,2.4c2.3,2.3,5.3,3.4,8.3,3.4c3,0,6-1.1,8.3-3.4l16.2-16c4.6-4.5,4.6-11.8,0-16.3C-221.1,415.7-222.3,415.7-223.1,416.4z
			 M-194.4,395.4l-2.4-2.4c-4.6-4.5-12-4.5-16.6,0l-16.2,16c-4.6,4.5-4.6,11.8,0,16.3c0.7,0.7,1.9,0.7,2.7,0c0.7-0.7,0.7-1.9,0-2.7
			c-3.1-3-3.1-8,0-11l16.2-16c3.1-3,8.1-3,11.2,0l2.4,2.4c3.1,3,3.1,8,0,11l-16.2,16c-0.7,0.7-0.7,1.9,0,2.7
			c0.4,0.4,0.9,0.6,1.3,0.6c0.5,0,1-0.2,1.3-0.6l16.2-16c2.2-2.2,3.4-5.1,3.4-8.2C-191,400.5-192.2,397.6-194.4,395.4z"/>
	</g>
</g>
</svg>
