<?xml version="1.0" encoding="utf-8"?>
<!-- Generator: Adobe Illustrator 19.0.0, SVG Export Plug-In . SVG Version: 6.00 Build 0)  -->
<svg version="1.1" id="圖層_1" xmlns="http://www.w3.org/2000/svg" xmlns:xlink="http://www.w3.org/1999/xlink" x="0px" y="0px"
	 viewBox="0 0 72 72" style="enable-background:new 0 0 72 72;" xml:space="preserve">
<style type="text/css">
	.st0{fill-rule:evenodd;clip-rule:evenodd;}
</style>
<g>
	<path d="M6.7,60.1H3.1v-2.8H2V64h1.1v-3.4h3.6V64h1.1v-6.7H6.7V60.1z M9.5,64h1.1v-6.7H9.5V64z M16.6,57.3h-1.1V64h4.1v-0.4h-3
		V57.3z M23.7,57.3L23.6,57l-0.1,0.3l-3.2,6.5L20.2,64l0.2,0h0.3h0.1l0-0.1l1.3-2.6h2.5l1.3,2.7l0,0.1H27L27,63.8L23.7,57.3z
		 M22.3,60.8l1-2.1l1,2.1H22.3z M28.1,64h1.1v-6.7h-1.1V64z M33.7,64h1.1v-3.4h2.6v-0.4h-2.6v-2.4h2.9v-0.4h-3.9V64z M42.9,57.2
		c-1.2,0-2.3,0.3-3,1c-0.8,0.6-1.2,1.5-1.2,2.4c0,1,0.4,1.8,1.2,2.4c0.8,0.7,1.8,1,3,1c1.2,0,2.2-0.3,3-1c0.8-0.6,1.2-1.4,1.2-2.4
		c0-0.9-0.4-1.8-1.2-2.4C45.1,57.6,44.1,57.2,42.9,57.2 M45.1,62.8c-0.6,0.6-1.3,0.9-2.2,0.9c-0.9,0-1.7-0.3-2.2-0.9
		c-0.6-0.6-0.8-1.3-0.8-2.1c0-0.9,0.3-1.6,0.8-2.1c0.6-0.6,1.3-0.9,2.2-0.9c0.9,0,1.7,0.3,2.2,0.9c0.6,0.6,0.8,1.3,0.8,2.1
		C45.9,61.5,45.7,62.2,45.1,62.8 M52.4,57.2c-1.2,0-2.3,0.3-3,1c-0.8,0.6-1.2,1.5-1.2,2.4c0,1,0.4,1.8,1.2,2.4c0.8,0.7,1.8,1,3,1
		c1.2,0,2.2-0.3,3-1c0.8-0.6,1.2-1.4,1.2-2.4c0-0.9-0.4-1.8-1.2-2.4C54.7,57.6,53.7,57.2,52.4,57.2 M54.7,62.8
		c-0.6,0.6-1.3,0.9-2.2,0.9c-0.9,0-1.7-0.3-2.2-0.9c-0.6-0.6-0.8-1.3-0.8-2.1c0-0.9,0.3-1.6,0.8-2.1c0.6-0.6,1.3-0.9,2.2-0.9
		c0.9,0,1.7,0.3,2.2,0.9c0.6,0.6,0.8,1.3,0.8,2.1C55.5,61.5,55.2,62.2,54.7,62.8 M62.6,57.9c-0.8-0.4-1.7-0.6-2.7-0.6h-2.2V64h0.1
		l2.1,0c1,0,1.8-0.2,2.6-0.6c1.1-0.6,1.7-1.5,1.7-2.7C64.3,59.4,63.7,58.5,62.6,57.9 M61.9,63c-0.7,0.4-1.5,0.6-2.5,0.6h-0.6v-5.8
		h0.7c0.9,0,1.7,0.2,2.4,0.5c0.9,0.5,1.3,1.3,1.3,2.3C63.3,61.7,62.8,62.5,61.9,63 M69.6,61.1c-0.3-0.4-0.9-0.8-1.8-1.2
		c-0.9-0.4-1.4-0.9-1.4-1.4c0-0.2,0.2-0.4,0.4-0.6c0.3-0.2,0.6-0.2,0.9-0.2c0.3,0,0.6,0.1,0.9,0.2c0.2,0.1,0.4,0.2,0.5,0.4l0.1,0.1
		l0.1-0.1l0.3-0.2l0.1-0.1l-0.1-0.1c-0.3-0.3-0.7-0.5-1.2-0.6c-0.2,0-0.5-0.1-0.7-0.1h0h0c-0.6,0-1.1,0.1-1.5,0.4
		c-0.4,0.3-0.7,0.6-0.7,1c-0.1,0.8,0.6,1.5,1.9,2.1c1.1,0.5,1.6,1,1.6,1.6c0,0.4-0.1,0.6-0.4,0.8c-0.3,0.2-0.6,0.3-1.1,0.3
		c-0.6,0-1.2-0.2-1.7-0.6l-0.1-0.1L65.7,63l-0.3,0.3l-0.1,0.1l0.1,0.1c0.6,0.4,1.3,0.6,2.1,0.6c0.6,0,1.2-0.1,1.6-0.4
		c0.5-0.3,0.8-0.8,0.8-1.3C70,61.8,69.9,61.4,69.6,61.1"/>
	<polygon id="XMLID_60_" class="st0" points="13.9,60.2 13.3,60.8 11.6,60.9 12.4,60.3 	"/>
	<path id="XMLID_59_" class="st0" d="M42.2,8.7c0.2,0.4,0.3,1.1,0.1,1.5c-0.3,0.6-0.9,1-1.3,1.6c-1.8,2.2-2.9,4.8-3,7.8
		c-0.1,0.2-0.2,0.3-0.4,0.4c-0.9,0.1-1.9,0-2.9,0c-0.2,0-0.4-0.2-0.4-0.4C34,18,33.7,16.4,33,15c-0.6-1.3-1.4-2.6-2.5-3.7
		c-0.5-0.5-1.1-1-1-1.7c0-0.5,0.3-1,0.7-1.2c0.4-0.3,1.2-0.4,1.7-0.1c0.8,0.6,1.2,1.5,1.7,2.4c1.1,2.6,1.8,5.3,2,8.2
		c0.2,0.3,0.6,0.2,0.9,0.1l0.1-0.2c0.2-3.4,0.9-6.5,2.5-9.4c0.4-0.5,0.9-1.3,1.6-1.3C41.3,7.9,41.8,8.2,42.2,8.7"/>
	<path id="XMLID_58_" class="st0" d="M45.5,11.5c0.4,0.4,0.5,1.1,0.3,1.6c-0.4,0.8-1.3,0.9-1.9,1.5c-2.3,1.7-3.6,4.3-3.1,7.1
		c0.3,1.9,1.7,3.6,3.3,4.8c0.8,0.6,2.3,1,1.9,2.3c-0.1,0.4-0.3,0.8-0.7,1c-0.4,0.3-1,0.3-1.4,0.1c-3.1-2-4.6-5.4-4.7-9
		c-0.1-3.6,1-6.9,3.8-9.2c0.6-0.3,1-0.8,1.8-0.6C45.1,11.2,45.3,11.3,45.5,11.5"/>
	<path id="XMLID_57_" class="st0" d="M29.7,12.4c3.5,3.4,4,9.2,2.1,13.5c-0.7,1.6-2.1,3.2-3.7,4.1c-0.4,0.2-1,0.1-1.4-0.2
		c-0.4-0.3-0.6-0.8-0.6-1.3c0.1-1.2,1.3-1.3,2-2c2.3-1.7,3.7-4.3,3.1-7.2c-0.4-2.4-2.4-4.5-4.6-5.6c-0.5-0.4-0.7-0.9-0.6-1.5
		c0.1-0.4,0.4-0.9,0.9-1C28.1,10.7,28.8,11.8,29.7,12.4"/>
	<path id="XMLID_56_" class="st0" d="M48.1,15.3c0.2,0.4,0.3,0.8,0.1,1.2c-0.6,1.1-2.1,0.7-2.9,1.4c-1,0.6-1.9,1.5-1.9,2.8
		c0,1.4,1.4,2.4,2.6,2.8c0.8,0.4,2.3,0.2,2.4,1.5c0,0.5-0.2,1-0.6,1.2c-0.8,0.5-1.7-0.1-2.4-0.4c-1.8-0.9-3.2-2.8-3.3-4.9
		c-0.2-2.1,1-4.1,2.8-5.3c0.6-0.4,1.3-0.7,2-0.9C47.4,14.6,47.8,14.8,48.1,15.3"/>
	<path id="XMLID_37_" class="st0" d="M26.5,15.3c2.1,0.9,3.6,3.1,3.6,5.4c0,2.3-1.6,4.4-3.7,5.3c-0.6,0.2-1.2,0.7-1.9,0.3
		C24,26,23.7,25.6,23.8,25c0.1-1.2,1.5-1,2.2-1.4c1-0.4,2.3-1.2,2.6-2.4c0.3-1.2-0.3-2.2-1.2-2.9c-0.9-0.7-2-1-3-1.2
		c-0.5-0.3-0.7-0.7-0.6-1.3c0.1-0.4,0.4-0.9,0.8-1C25.2,14.6,25.9,15,26.5,15.3"/>
	<path id="XMLID_36_" class="st0" d="M37.5,21.2c0.2,0,0.3,0.2,0.4,0.3c0.2,1.5,0.4,2.9,1,4.3c0.8,1.7,1.8,3.3,3.3,4.7
		c0.3,0.4,0.4,1.1,0.2,1.6c-0.1,0.5-0.6,1-1.2,1c-0.5,0.1-1,0-1.4-0.4c-1.5-1.9-2.2-4.1-2.8-6.4c-0.3-1.2-0.4-2.6-0.5-3.9l-0.1-0.1
		c-0.3,0-0.6-0.1-0.8,0.1c-0.2,3.4-1,6.7-2.6,9.5c-0.3,0.5-0.7,1.1-1.3,1.2c-0.7,0.1-1.4-0.1-1.7-0.7c-0.2-0.4-0.3-1.1-0.1-1.6
		c0.3-0.6,1-1.1,1.4-1.7c1.7-2.2,2.8-4.7,2.9-7.6c0-0.1,0.1-0.3,0.3-0.4l0.2-0.1L37.5,21.2z"/>
	<path id="XMLID_35_" d="M6.9,42.2l0.9,0C8,42.3,8,42.6,7.9,42.8C7.6,43,7.3,43,7,43.1c-0.1,0.4-0.7,0.1-0.9,0.3
		c-0.3,0.1-0.6,0-0.6-0.3c-0.1-0.2-0.1-0.5,0-0.7c0.1-0.1,0.2-0.4,0.4-0.4C6.2,42,6.5,42.1,6.9,42.2"/>
	<path id="XMLID_34_" d="M15.1,51c0.1,0.1,0.2,0.2,0.1,0.3c-0.5,0.3-0.7,1-1.4,0.9c-0.4-0.3-0.1-0.6-0.3-0.9c0-0.3-0.2-0.6,0.1-0.8
		L15.1,51z"/>
	<path id="XMLID_33_" d="M11.5,51.2c-0.1,0.6-0.2,1.2-0.8,1.4c-0.3,0-0.7,0.4-0.8-0.1c-0.1-0.4-0.4-0.9,0-1.3
		C10.5,51.4,11,51,11.5,51.2"/>
	<path id="XMLID_32_" d="M28.9,40.1c0.3,0.8-0.8,1-0.6,1.8l0.1,0.1c0.9,0,1.8-0.1,2.6,0.1c0.2,0.3,0.3,0.7,0.2,1.1l-0.4,0.3
		c-0.8,0-1.7,0-2.5,0c-0.2,0.1,0,0.3-0.1,0.5c-0.2,0.2,0.1,0.4,0.1,0.6c0.1,0,0.2-0.1,0.2-0.2c0.3-0.2,0.5-0.9,0.9-0.6
		c0.5,0.2,0.1,0.8,0.5,1c0.5,0.1,0.9-0.2,1.4-0.1c0.1,0.2,0.1,0.4,0,0.5c-0.4,0.4-0.9,0.7-1.5,0.8c-0.5,0-0.9,0.2-1.3,0.3
		c-0.1,0.1-0.2,0.2-0.1,0.2c0.7,0.6,1.6,0.6,2.1,1.3c0.1,0.6,0.9,0.2,1.1,0.8c0.7,0.4,1.3,0.9,2.1,1c0.4-0.1,0.6,0.1,0.9,0.1
		c0.1,0.1,0.2,0.3,0.2,0.5c-0.2,0.1,0,0.5-0.3,0.6c0,0,0.1,0.1,0,0.2c0,0-0.1,0.1-0.1,0c-0.1-0.1,0.1-0.2-0.1-0.2
		c-0.2,0.5-0.8,0.1-1.1,0.5c-0.4,0-0.7,0.3-1.1,0.3c-0.2,0.2-0.4,0.1-0.6,0c-0.2-0.2-0.2-0.5-0.5-0.6c-0.3-0.7-1-0.8-1.4-1.3
		c0.1-0.6-0.7-0.4-0.8-0.9c-0.3-0.1-0.7-0.8-1-0.4c0,0.6,0.1,1.1,0.2,1.7c-0.2,0.8,0,1.3,0.1,2.1c-0.1,0.4-0.4,0.7-0.7,0.7
		c-0.3,0-0.5-0.1-0.7-0.2c-0.2-0.2,0-0.4,0-0.5c0.1-0.7,0-1.3,0-2.1c0.1-0.2,0-0.5,0.1-0.7c0.1-0.5-0.2-0.8-0.1-1.3
		c-0.1-0.2,0.1-0.5-0.2-0.6c-0.3,0.2-0.6,0.6-0.8,0.9c-1.3,0.9-2,2.2-3.5,2.9c-0.4,0.3-0.9,0.4-1.4,0.3c-0.4-0.2-0.2-0.6-0.3-1
		c0.2-0.2,0.6-0.3,0.9-0.3c1.3-0.4,2.2-1.5,3.3-2.2c0.6-0.5,1-1.1,1.6-1.6c0.1-0.1,0.1-0.2,0-0.4c-0.2-0.2-0.4,0.1-0.7,0
		c-0.8,0-1.6,0.1-2.2,0.6c-0.3,0.1-0.4-0.2-0.6-0.3c-0.2-0.4-0.2-0.8,0-1.1c0.4-0.2,0.8-0.2,1.1-0.6c0.2-0.3,0.1-0.6,0.3-0.8
		c0.4-0.1,0.7,0.1,0.9,0.4c0.1,0.3-0.2,0.8,0.2,0.8c0.4,0.1,0.6-0.2,1-0.2c0.3-0.3,0.3-0.7,0.3-1.1c-0.1-0.1,0-0.5-0.3-0.4
		c-1.1,0.1-2.1,0.1-3.1,0.4c-0.3,0.1-0.4-0.2-0.5-0.4c0-0.3-0.2-0.5,0-0.7c0.2-0.6,0.9-0.4,1.3-0.9c0.3-0.1,0.4,0.1,0.6,0.2
		c0.2,0,0.5-0.1,0.7,0c0.4-0.1,1,0,1.5-0.1c0.1-0.1,0.1-0.4,0-0.5c0.1-0.6-0.5-0.9-0.5-1.4c0.2-0.3,0.5-0.2,0.8-0.4
		C28.1,39.6,28.7,39.5,28.9,40.1"/>
	<path id="XMLID_31_" d="M11.2,40.5c0.3,0.3,0.1,0.8,0.4,1c0.1,0.9,0.2,1.8,0.2,2.6c-0.1,0.1-0.2-0.1-0.3-0.1
		c-0.2,0-0.3,0.3-0.5,0.1c-0.3-0.5,0-1.1-0.4-1.5c-0.6,0.1-1.4,0.1-2,0.2c-0.2,0-0.3-0.2-0.4-0.3c-0.1-0.4,0.3-0.6,0.3-0.9
		c0.4-0.4,0.9-0.1,1.4,0l0.5-0.2c-0.2-0.2-0.2-0.6-0.5-0.8c0-0.2,0.3-0.4,0.4-0.5C10.7,40,11.1,40.2,11.2,40.5"/>
	<path id="XMLID_30_" d="M4.6,44.6c0.8,0,1.7,0.2,2.5,0c0.2-0.1,0.3-0.3,0.5-0.2c0.1,0.3,0.1,0.6,0,0.9c-0.9,0.3-1.8,0.5-2.7,0.5
		c-0.3,0.1-0.7,0.2-1,0.3c-0.3,0-0.5-0.1-0.6-0.4c0.1-0.4,0-0.7,0.2-1C3.8,44.4,4.3,44,4.6,44.6"/>
	<path d="M14.8,39.9c0.1,0.4-0.2,0.6-0.2,1c-0.1,0.3-0.3,0.9,0.3,0.8c0.5,0.3,1.1,0.2,1.6,0.3c0.2-0.1,0.5-0.2,0.7,0
		c0.2,0.3-0.1,0.5,0,0.8c-0.1,0-0.3,0.1-0.4,0c-0.3,0.6-0.9,0.1-1.3,0.2c-0.5-0.1-1-0.1-1.5,0.1c-0.1,0.4-0.2,0.8-0.5,1.1
		c0.5,0.1,0.9-0.1,1.3,0c0.3,0,0.5-0.5,0.9-0.2c0.1,0.2,0.5,0.2,0.4,0.5c-0.4,0.7-0.9,1.5-0.9,2.4c-0.1,0.1-0.1,0.3-0.2,0.3
		c-0.4-0.1-0.6,0.4-1,0.2c-0.1-0.1-0.4,0-0.6,0c0,0.1-0.1,0.2,0,0.3c0.4,0.1,1-0.2,1.2,0.2c0.1,0.3-0.1,0.6-0.3,0.7
		c-0.3,0-0.5,0.3-0.8,0.2c-0.1,0.1-0.2,0.2-0.1,0.3c0.2,0.1,0.4,0,0.7,0c0.9,0,1.9,0.3,2.8,0.1c0.1-0.2,0.4-0.2,0.6-0.2
		c0.1,0.2,0.4,0.2,0.4,0.3c0,0.3-0.1,0.7-0.5,0.8c0,0.4-0.5,0.4-0.7,0.7c-0.4,0-0.7-0.3-1.1-0.3c-0.7-0.1-1.4-0.4-2.1-0.3
		c-1.1-0.2-2,0.3-3.1,0.4c-0.6,0.3-1.3,0.2-1.9,0.6c-0.2,0-0.3,0-0.4-0.1c-0.2-0.3,0-0.6,0.2-0.9c0.2-0.1,0.2-0.3,0.3-0.4l0.6-0.4
		c1.1,0.1,2-0.3,3.1-0.2c0.1-0.1,0.1-0.2,0-0.3c-0.2-0.3-0.5,0-0.7,0c-0.2,0.2-0.4,0-0.5,0c-0.2-0.2-0.2-0.5-0.2-0.7
		c0.2-0.2,0.2-0.4,0.4-0.5c0.3,0,0.6,0.1,0.8,0.1c0.1-0.1,0-0.2,0.1-0.3c-0.1-0.1-0.2,0-0.3,0c-0.6,0-1.2,0.1-1.6,0.5
		c-0.3,0.1-0.4-0.2-0.4-0.4c0.1-0.9-0.1-1.8-0.8-2.4l0.2-0.6c0.8-0.1,1.7,0,2.5-0.1c0.5-0.1,1,0,1.5-0.1c-0.3-0.2-0.3-0.7-0.2-1
		c0.2-0.4,0.2-0.9,0.4-1.4c0.4-0.7-0.1-1.8,0.7-2.3C14.3,39.2,14.6,39.6,14.8,39.9 M13.6,45.2c-0.3,0.1-0.5,0.3-0.5,0.7
		c0.1,0.3,0.2,0.4,0.5,0.3c0.5,0,0.2-0.5,0.4-0.7C14.1,45.3,13.9,45.1,13.6,45.2 M10.8,45.7c0,0.2,0.1,0.3,0.1,0.5
		c0.3,0.3,0.6-0.1,1,0c0.1-0.2-0.1-0.4,0-0.6C11.5,45.5,11.1,45.6,10.8,45.7"/>
	<path id="XMLID_26_" d="M8.5,47.3c-0.4,0.7-1.2,0.5-1.7,1.1C6.4,48.5,6,48.9,5.6,49c-0.3,0-0.5-0.1-0.6-0.4
		c-0.2-0.5-0.1-1.1,0.2-1.5c0.2,0.1,0.4,0,0.6-0.1c0.9-0.1,1.7-0.4,2.4-0.9C8.8,46.3,8.4,46.9,8.5,47.3"/>
	<path id="XMLID_25_" d="M51.2,51C51.2,51,51.1,51,51.2,51c-0.1-0.1-0.1-0.1-0.1-0.1c0,0-0.1,0-0.1,0c0,0-0.1,0-0.1,0
		c0,0-0.1,0-0.1,0c0-0.1-0.1-0.1-0.2-0.1c0,0,0,0-0.1,0l0,0c0,0,0,0,0,0c-0.1-0.1-0.2-0.1-0.3-0.1c-0.2-0.1-0.3-0.2-0.5-0.2
		c0,0,0,0,0,0c-0.2,0-0.3-0.1-0.4-0.1c-0.1,0-0.1-0.1-0.2-0.1c-0.1-0.1-0.3-0.1-0.4-0.1c-0.1,0-0.2,0-0.3-0.1c0,0,0,0-0.1,0
		c-0.1,0-0.3-0.1-0.4-0.2c-0.1-0.1-0.3-0.3-0.5-0.3c-0.1-0.1-0.2-0.1-0.2-0.2c-0.1-0.1-0.1-0.1-0.2-0.2c0,0,0,0-0.1,0c0,0,0,0,0,0
		c0,0,0,0,0,0c-0.1,0-0.1,0-0.2-0.1c0,0,0-0.1-0.1-0.1c0,0,0,0-0.1,0c-0.1,0-0.2-0.1-0.3-0.2c0,0-0.1,0-0.1-0.1
		c-0.1-0.1-0.2-0.1-0.3-0.2c-0.1,0-0.2-0.1-0.3-0.2c0,0-0.1,0-0.1,0c0,0,0,0,0,0c0,0,0,0,0-0.1c0,0,0-0.1,0-0.1c0,0-0.1-0.1-0.1-0.1
		c0,0,0,0,0,0h0c-0.1,0-0.2-0.1-0.3-0.1c0,0-0.1-0.1-0.2-0.1l0,0c0,0-0.1-0.1-0.1-0.1c0,0,0.1,0,0.1,0c0.1,0,0.1,0,0.2,0
		c0,0,0.1,0,0.1,0c0,0,0.1,0,0.1,0c0,0,0,0,0.1,0c0,0,0,0,0,0c0.1,0,0.3,0,0.5,0c0.1,0,0.3,0,0.4,0l0,0c0.1,0,0.1,0,0.2,0
		c0,0,0,0,0.1,0l0,0c0.1,0,0.2,0,0.3,0c0.1,0,0.2,0,0.3,0c0,0,0,0,0.1,0c0.1,0,0.2,0,0.3,0c0.1,0,0.1,0,0.2,0c0,0,0.1,0,0.1,0
		c0,0,0.1,0,0.1,0c0,0,0,0,0,0c0.2,0,0.3-0.1,0.3-0.2c0,0,0,0,0-0.1c0.1,0,0.2-0.2,0.2-0.3c0,0,0,0,0,0c0-0.1-0.2-0.2-0.2-0.2
		c0,0-0.1,0-0.1,0c0,0-0.1-0.1-0.1-0.1c-0.1,0-0.2,0-0.3,0c-0.1,0-0.2,0-0.3,0c-0.1,0-0.2,0-0.3,0c0,0-0.1,0-0.1,0
		c-0.2,0-0.3,0-0.4,0.1c-0.1,0-0.3,0.1-0.4,0.1c0,0,0,0,0,0c-0.1,0-0.1,0-0.2,0c-0.1,0-0.1,0-0.2,0c0,0-0.1,0-0.1,0
		c-0.1,0-0.1,0-0.2,0c-0.1,0-0.2,0-0.3,0.1c-0.1,0-0.1,0.1-0.2,0.1c0,0,0,0,0,0c0,0,0,0,0,0h0c0,0,0,0-0.1,0c0,0-0.1,0-0.1,0
		c0,0,0,0-0.1,0c0,0-0.1,0-0.1,0c-0.1,0-0.1,0-0.2,0c0,0-0.1,0-0.1,0c0,0,0,0,0,0c-0.1,0-0.1-0.1,0-0.3c0-0.1,0.1-0.2,0.1-0.3
		c0,0,0-0.1,0-0.1c-0.1-0.1-0.2-0.1-0.2-0.2c0,0-0.1,0-0.1,0c-0.1,0-0.1-0.1-0.2-0.1c0,0,0,0,0,0c0,0,0.1,0,0.1,0c0,0,0,0,0.1,0
		c0,0,0,0,0,0c0.5-0.1,1-0.1,1.4-0.1c0,0,0,0,0,0c0,0,0.1,0,0.1,0c0,0,0,0,0.1,0c0.2,0,0.5,0,0.7,0.1c0.1,0,0.2,0.1,0.2,0.1
		c0.2,0,0.4-0.2,0.6-0.3c0.1-0.1,0.1-0.1,0.2-0.2c0,0,0,0,0,0c0-0.1,0-0.2,0-0.3c0,0-0.1-0.1-0.1-0.1c-0.1,0-0.2,0-0.3,0
		c-0.1,0-0.2,0-0.2,0c-0.1-0.1-0.2-0.1-0.3-0.1c-0.1,0-0.1,0-0.2,0c0,0-0.1,0-0.1,0c0,0,0,0-0.1,0c0,0,0,0,0,0c0,0-0.1,0-0.1,0
		c0,0-0.1,0-0.1,0c-0.1,0-0.1,0-0.2,0c0,0,0,0,0,0c-0.1,0-0.1,0-0.2,0c-0.1,0-0.2,0-0.3,0.1C44.9,45,44.8,45,44.8,45l-0.1,0l-0.1,0
		c-0.1,0-0.1,0-0.2,0c0-0.1,0-0.1,0-0.2c0,0,0-0.1,0-0.1c0,0,0,0,0,0v0c0,0,0-0.1,0-0.1c0-0.1,0-0.1,0-0.1l0.4,0c0,0,0.1,0,0.1,0
		c0.1,0,0.1,0,0.2,0c0,0,0.1,0,0.1,0c0,0,0.1,0,0.2,0c0,0,0.1,0,0.1,0c0,0,0,0,0.1,0c0,0,0,0,0,0c0,0,0,0,0,0c0,0,0.1,0,0.1,0
		c0.1,0,0.1,0,0.2,0c0.1,0,0.1,0,0.2,0c0.1,0,0.2,0,0.2,0c0,0,0,0,0,0c0.1-0.1,0.2-0.2,0.3-0.2c0.1-0.1,0.2-0.2,0.2-0.2
		c0.1,0,0.1-0.1,0.1-0.2c0-0.1-0.1-0.2-0.1-0.3c0,0,0,0,0-0.1c0,0-0.1-0.1-0.1-0.1c0,0,0,0,0,0c-0.1,0-0.3,0.1-0.4,0.1
		c-0.1,0-0.1,0-0.2,0c-0.1,0-0.2,0-0.3,0c-0.1,0-0.2,0-0.3-0.1c0,0,0,0-0.1,0c0,0,0,0-0.1,0c0,0-0.1,0-0.2,0c-0.1,0-0.2,0-0.2,0
		c-0.1,0-0.1,0-0.2,0c-0.1,0-0.1,0-0.2,0c0,0-0.1,0-0.1,0c0,0,0,0-0.1,0c0,0,0,0,0-0.1c0-0.1,0-0.2,0-0.3c0-0.2,0-0.2,0.1-0.2
		c0.1,0,0.2,0,0.3,0.1c0,0,0.1,0,0.1,0c0.1,0,0.1,0,0.2-0.1c0.1,0,0.1,0,0.2,0c0.2,0,0.5,0,0.7-0.1c0.2,0,0.3-0.1,0.5-0.1
		c0,0,0,0,0.1,0c0.1-0.1,0.2-0.1,0.4-0.1c0.2,0,0.5,0,0.7-0.3c0,0,0,0,0,0c0-0.1,0.1-0.1,0.1-0.2c0.1-0.1,0.1-0.2,0.1-0.3
		c0,0,0-0.1,0-0.1c0-0.1-0.1-0.2-0.2-0.2c-0.1,0-0.1,0-0.1,0.1c0,0,0,0,0,0c0,0,0,0-0.1,0c0,0-0.1,0-0.1,0c0,0-0.1,0-0.1,0
		c0,0-0.1,0-0.1,0c-0.1,0-0.1,0-0.2,0c0,0-0.1,0-0.1,0c0,0-0.1,0-0.1,0c-0.1,0-0.1,0-0.2,0c-0.1,0-0.2,0.1-0.3,0.1c0,0-0.1,0-0.1,0
		c-0.1,0-0.1-0.1-0.2-0.1c-0.1,0-0.1,0-0.1,0c0,0,0,0,0,0c0-0.1,0.1-0.1,0-0.2c0-0.1,0.1-0.2,0.2-0.3c0.1-0.1,0.2-0.2,0.2-0.3
		c0,0,0-0.1,0-0.1c-0.1-0.2-0.2-0.3-0.4-0.3c0,0,0,0,0,0c0,0,0,0,0,0c0,0-0.1,0-0.1-0.1c-0.1,0-0.1-0.1-0.2-0.1
		c-0.1-0.1-0.2-0.1-0.3-0.1c0,0-0.1,0-0.1,0c0,0,0,0,0,0c0,0,0,0-0.1,0c0,0-0.1-0.1-0.2-0.1c-0.1,0-0.1,0-0.1,0.1c0,0,0,0,0,0
		c-0.1,0.2-0.2,0.4-0.2,0.7c0,0.1,0,0.2,0,0.3c0,0.2,0,0.4-0.2,0.6c-0.2,0.1-0.5,0.1-0.8,0.2c-0.2,0-0.3,0-0.5,0.1c0,0,0,0,0,0
		c0,0,0-0.1,0-0.1c0,0-0.1-0.1-0.1-0.1c0,0,0,0,0,0c0,0,0,0-0.1,0c-0.2,0-0.3-0.2-0.4-0.4c0-0.1-0.1-0.1-0.1-0.2
		c-0.1-0.2-0.3-0.6-0.6-0.6c0,0,0,0,0,0c0,0,0,0,0,0c-0.1,0-0.1,0-0.2,0c-0.1,0-0.1,0-0.2,0c0,0,0,0-0.1,0c0,0,0,0,0,0
		c0,0-0.1,0-0.1,0c0,0-0.1,0-0.2,0.1c0,0,0,0.1,0,0.1L41,41c0,0.1,0.1,0.2,0.2,0.4c0,0.1,0.1,0.1,0.1,0.2c0,0,0,0,0,0
		c0.1,0.1,0.1,0.2,0.1,0.3c0,0.1,0,0.1,0,0.2c0,0-0.1,0-0.1,0c0,0,0,0,0,0c0,0-0.1,0-0.1,0c0,0-0.1,0-0.2,0l-0.1,0l-0.1,0
		c0,0-0.1,0-0.2,0c0,0,0,0,0,0c-0.1,0.1-0.2,0.1-0.3,0.1c0,0-0.1,0-0.1,0c-0.1,0.1-0.2,0.2-0.2,0.3c0,0,0,0,0,0.1c0,0.1,0,0.1,0,0.2
		c0,0.1-0.1,0.3,0.1,0.5c0.1,0.1,0.1,0.1,0.2,0.1c0,0,0.1,0,0.1,0c0,0,0,0,0,0c0,0,0,0,0.1,0c0,0,0,0,0,0c0.2-0.1,0.4-0.1,0.6-0.1
		c0,0,0.1,0,0.1,0c0,0,0,0,0,0c0,0,0.1,0,0.1,0c0.1-0.1,0.3-0.1,0.5-0.1c0.1,0,0.1,0,0.2,0c0.1,0,0.1,0,0.2,0c0,0,0,0,0.1,0
		c0,0,0,0,0,0c0,0,0.1,0,0.1,0c0,0,0.1,0,0.1,0c0.1,0,0.1,0,0.2-0.1c0,0,0,0,0,0c0.1,0,0.2,0,0.3,0c0.1,0,0.1,0,0.2,0
		c0.1,0,0.1,0,0.2,0c0.1,0,0.1,0,0.1,0.1c0,0.1,0,0.2,0,0.3c0,0-0.1,0-0.1,0.1c0,0-0.1,0-0.2,0.1c0,0-0.1,0-0.2,0c0,0-0.1,0-0.1,0
		c-0.1,0-0.1,0-0.1,0c-0.1,0-0.1,0-0.2,0c-0.1,0-0.2,0.1-0.4,0.1H42l0,0c-0.1,0-0.2,0-0.3,0c-0.1,0-0.1,0-0.2,0c-0.1,0-0.1,0-0.2,0
		c0,0-0.1,0-0.1,0c0,0-0.1,0-0.1,0c-0.1,0-0.2,0.1-0.3,0.1c0,0,0,0.1,0,0.1c0,0,0,0-0.1,0.1c-0.1,0-0.2,0.1-0.2,0.3l0,0
		c0,0.1-0.1,0.3,0.1,0.5c0,0,0.1,0,0.1,0c0.2,0,0.5,0,0.8-0.2c0,0,0.1,0,0.1,0c0.1,0,0.2,0,0.4-0.1c0.1,0,0.2,0,0.3,0h0
		c0,0,0.1,0,0.1,0c0,0,0,0,0.1,0c0,0,0,0,0.1,0c0,0,0,0,0.1,0c0.1,0,0.2-0.1,0.3-0.1c0.1,0,0.2,0,0.3-0.1c0.1,0,0.1,0,0.2,0
		c0,0,0.1,0,0.1,0c0,0,0,0,0.1,0.2c0,0.1,0,0.1,0.1,0.2c0,0.1,0,0.1,0,0.2c0,0,0,0.1,0,0.1c0,0.1,0,0.1-0.2,0.1c0,0-0.1,0-0.1,0
		c-0.1,0-0.1,0-0.2,0c-0.2,0-0.3,0-0.5,0c-0.1,0-0.3,0-0.4,0c0,0,0,0-0.1,0c-0.1,0-0.2-0.1-0.3-0.1c-0.1,0-0.2,0-0.2,0.1
		c0,0,0,0,0,0c0,0,0,0,0,0c0,0,0,0-0.1-0.1c-0.1,0-0.2-0.1-0.3-0.1h0c-0.2,0-0.3,0.1-0.4,0.2c-0.3,0.1-0.4,0.4-0.5,0.7
		c0,0,0,0,0,0.1c0.1,0.2,0.2,0.3,0.5,0.3c0.1,0,0.1,0,0.2,0c0.1,0,0.1,0,0.2,0c0,0,0,0,0.1,0c0,0,0,0,0,0c0,0,0,0,0.1,0
		c0,0,0.1,0,0.1-0.1c0,0,0,0,0,0c0,0,0,0,0,0c0,0,0.1,0,0.1,0c0.1,0,0.1,0,0.2,0l0.1,0l0.1,0c0.1,0,0.2,0,0.3-0.1
		c0.1,0,0.2,0,0.2-0.1c0.1,0,0.1,0,0.1,0c0,0,0,0,0,0c0,0,0.1,0,0.2,0c0.1,0,0.2,0,0.3-0.1c0.1,0,0.1,0,0.1,0h0c0,0,0.1,0,0.1,0
		c0,0,0.1,0,0.1,0c0,0,0.1,0,0.1,0c0,0,0,0,0,0c0,0-0.1,0-0.1,0h0c-0.1,0-0.3,0.1-0.4,0.1c0,0,0,0,0,0c-0.1,0.2-0.1,0.4,0,0.5
		c0,0.2,0,0.2,0,0.3c-0.1,0-0.3,0.1-0.4,0.1c0,0-0.1,0-0.1,0c0,0,0,0,0,0c0,0-0.1,0-0.1,0c0,0,0,0,0,0c0,0-0.1,0-0.2-0.1
		c0,0-0.1,0-0.1,0c0,0,0,0,0,0c0,0,0,0,0,0l-0.6,0.2c0,0-0.1,0-0.1,0c-0.1,0-0.1,0-0.2,0c-0.1,0-0.2,0-0.2,0c-0.1,0-0.1,0-0.2,0
		c-0.1-0.1-0.3-0.1-0.5-0.1h-0.1l-0.1,0c-0.1,0-0.2,0.1-0.3,0.1c-0.1,0.1-0.2,0.1-0.3,0.1l0,0c0,0,0,0,0,0c0,0-0.1,0-0.1,0
		c-0.3,0.2-0.6,0.6-0.5,1c0,0,0,0,0,0c0.1,0.1,0.2,0.2,0.4,0.2c0,0,0.1,0,0.1,0c0,0,0,0,0,0c0.1,0,0.2-0.1,0.3-0.1c0,0,0.1,0,0.1,0
		c0.2,0,0.3-0.1,0.5-0.1c0.1,0,0.2-0.1,0.2-0.1c0,0,0.1,0,0.1,0c0.1,0,0.1,0,0.2,0c0,0,0,0,0.1,0c0,0,0.1,0,0.1,0
		c0.1-0.1,0.3-0.1,0.5-0.1c0,0,0.1,0,0.1,0c0,0,0.1,0,0.1,0c0.1-0.1,0.2-0.1,0.3-0.1c0,0,0,0,0,0c0.1,0.1,0.1,0.1,0.2,0.1
		c0,0,0,0,0,0c0,0.2-0.1,0.3-0.3,0.5c0,0-0.1,0.1-0.1,0.1c0,0.1-0.1,0.1-0.1,0.1c-0.1,0.1-0.3,0.2-0.4,0.3c-0.2,0.2-0.3,0.3-0.4,0.3
		c0,0,0,0-0.1,0l-0.5,0.3c0,0,0,0,0,0c-0.2,0-0.3,0.1-0.5,0.2c0,0-0.1,0-0.1,0.1c-0.1,0-0.1,0-0.2,0.1c-0.1,0-0.3,0-0.4,0.2
		c-0.2,0-0.4,0.1-0.5,0.2c-0.1,0-0.1,0-0.2,0c0,0-0.1,0-0.1,0c0,0,0,0-0.1,0c0,0,0,0,0,0c0,0,0,0-0.1,0c-0.1,0.1-0.2,0.1-0.3,0.1
		c0,0,0,0-0.1,0c0,0,0,0,0,0c0,0,0,0,0,0c0,0-0.1,0-0.1,0c-0.1,0-0.1,0-0.2,0c-0.1,0-0.1,0-0.2,0c-0.1,0-0.2,0-0.3,0.1
		c0,0,0,0.1,0,0.1c0,0.1,0,0.1,0,0.2c0,0,0,0.1,0,0.1c0,0.1,0,0.1,0.1,0.1c0,0,0.1,0,0.1,0.1c0.1,0.1,0.2,0.1,0.3,0.1c0,0,0,0,0,0
		c0.1,0.1,0.2,0.1,0.3,0.1c0,0,0.1,0,0.1,0c0.1,0,0.2,0.1,0.3,0.1c0.2,0,0.3,0,0.5-0.1c0.1,0,0.2-0.1,0.3-0.1c0,0,0.1,0,0.1,0
		c0.1,0,0.1-0.1,0.2-0.1c0.1,0,0.1,0,0.2-0.1c0,0,0,0,0,0c0.1-0.1,0.2-0.1,0.3-0.2c0.1,0,0.2,0,0.2-0.1c0,0,0.1,0,0.1-0.1
		c0,0,0.1,0,0.1-0.1l0,0c0,0,0,0,0,0c0.1,0,0.2-0.1,0.2-0.1c0,0,0,0,0,0l0.3-0.1c0,0,0.1,0,0.1-0.1c0.1-0.2,0.3-0.3,0.4-0.4
		c0.2-0.1,0.4-0.3,0.5-0.5c0,0,0.1,0,0.1-0.1c0.1-0.1,0.1-0.1,0.2-0.2c0.1,0,0.1,0,0.2-0.1c0,0,0,0,0.1-0.1c0.1-0.1,0.2-0.2,0.3-0.4
		c0.1-0.1,0.3-0.3,0.3-0.5c0.1-0.1,0.1-0.2,0.1-0.3c0,0,0,0,0.1-0.1c0,0,0,0,0,0c0,0,0,0,0,0.1c0,0,0,0.1,0.1,0.1c0,0,0,0,0.1,0
		c0.1,0,0.2,0.1,0.3,0.2c0.1,0,0.1,0.1,0.2,0.1c0,0,0,0,0.1,0c0,0,0.1,0,0.1,0.1c0.1,0.1,0.2,0.2,0.3,0.2c0.1,0.1,0.2,0.2,0.3,0.3
		l0.1,0.1l0,0.1c0.1,0.1,0.2,0.2,0.3,0.3c0.1,0.1,0.1,0.1,0.2,0.1c0,0,0,0,0,0c0,0,0,0.1,0.1,0.1c0.2,0.1,0.3,0.3,0.5,0.4
		c0.1,0.2,0.2,0.3,0.3,0.4c0.1,0.1,0.1,0.2,0.2,0.3c0,0,0,0,0.1,0c0.2,0,0.4,0.2,0.6,0.4c0,0,0.1,0.1,0.1,0.1
		c0.1,0.2,0.3,0.3,0.6,0.3c0,0,0.1,0,0.1,0.1c0.1,0.1,0.2,0.2,0.3,0.2c0,0,0.1,0,0.1,0c0,0,0,0,0,0c0.1,0,0.1,0,0.1,0c0,0,0,0,0,0
		c0.1,0,0.1,0,0.2,0c0,0,0.1,0,0.1,0c0,0,0.1,0,0.1,0c0,0,0.1,0,0.1,0c0,0,0,0,0,0c0,0,0,0,0.1,0c0.1,0,0.1,0,0.2-0.1
		c0.1,0,0.3-0.1,0.4-0.1c0,0,0,0,0,0c0,0,0,0,0.1,0c0,0,0.1,0,0.1,0c0,0,0,0,0.1,0.1c0,0,0,0,0,0c0,0,0,0,0.1,0
		c0.1-0.1,0.2-0.1,0.3-0.2c0,0,0.1,0,0.1,0c0.1,0,0.3,0,0.4-0.2c0,0,0,0,0,0C51.3,51.2,51.2,51.1,51.2,51"/>
	<path d="M55.3,43.8c0,0,0.1,0,0.1-0.1c0,0,0,0,0,0c0,0,0.1,0,0.2,0c0.1,0,0.1,0,0.2,0c0.1-0.1,0.4-0.1,0.7-0.2l0.1-0.1
		c0-0.1,0.2-0.1,0.4-0.3c0,0,0,0,0,0c0,0,0.1,0,0.1,0c0.2,0,0.3-0.1,0.4-0.2h0c0.3-0.1,0.4-0.3,0.4-0.2v0c0,0,0.1,0,0.1,0
		c0.3-0.2,0.6-0.4,0.8-0.8c0.2-0.2,0.3-0.4,0.4-0.4c0.2,0.1,0.4,0.1,0.5,0.2c0,0,0.1,0.1,0.1,0.1c0.1,0,0.2,0.1,0.5,0.2
		c0.1,0.1,0.2,0.1,0.3,0.1c0.1,0,0.1,0,0.1,0.1c0,0,0.1,0.1,0.1,0.1c0,0,0.1,0,0.2,0h0c0,0,0,0,0,0.1c0.2,0.1,0.3,0.1,0.4,0.2l0.1,0
		c0,0,0,0,0,0c0.2,0,0.4,0.1,0.5,0.3c0,0.1,0.1,0.1,0.2,0.1l0,0c0,0,0,0,0.1,0.1c0,0,0.1,0.1,0.2,0.2c0.1,0.1,0.1,0.1,0.1,0.1
		c0,0,0,0,0,0l0.1,0.1c0.1,0.1,0.2,0.1,0.3,0.1c0.2,0,0.3,0,0.3,0c0,0,0,0,0,0c0,0,0.1,0,0.1,0c0,0,0.2,0,0.3,0c0,0,0.1,0,0.1,0
		c0.3,0,0.5-0.1,0.6-0.1c0,0,0.1,0,0.1,0c0.1,0,0.1,0,0.2,0c0.1-0.1,0.5,0,0.7-0.4c0-0.1,0-0.1,0-0.1c0-0.2-0.1-0.3-0.3-0.3
		c0,0-0.1,0-0.1,0l0,0c0,0-0.1-0.1-0.2-0.1c0,0-0.1,0-0.1,0c-0.1,0-0.2,0-0.3,0h-0.1c-0.2,0-0.2,0-0.3-0.1l-0.1,0
		c-0.1,0-0.2,0-0.4-0.1c0,0,0,0,0,0c0,0-0.1,0-0.1,0c0,0-0.1,0-0.1,0c0,0,0,0,0,0c0,0-0.1-0.1-0.1-0.1c0,0-0.1,0-0.1,0c0,0,0,0,0,0
		c0,0,0-0.1-0.1-0.1c-0.1,0-0.1,0-0.2,0c0,0-0.1,0-0.1,0c0,0-0.1,0-0.1,0c0,0,0-0.1-0.1-0.1c0,0-0.1-0.1-0.1-0.1
		c-0.1,0-0.3,0-0.5-0.1c0,0,0,0,0,0c-0.1-0.1-0.3-0.1-0.4-0.1c-0.1-0.1-0.2-0.2-0.3-0.1c-0.1,0-0.2,0-0.3,0h0c0,0-0.1-0.1-0.3-0.2
		c-0.2,0-0.4-0.1-0.5-0.2l-0.1,0c0,0-0.2-0.1-0.4-0.3c0,0,0,0,0,0c0-0.1,0.1-0.1,0.1-0.2c0,0,0-0.1,0-0.1c0,0,0,0,0-0.1
		c0-0.2-0.2-0.3-0.1-0.3l0,0l-0.1-0.1c0,0-0.1-0.1-0.1-0.1c-0.1,0-0.2,0-0.3,0c-0.2,0-0.5,0.1-0.6,0.3c0,0.1,0,0.1,0,0.2
		c0.1,0.1,0.2,0.1,0.2,0.2c0,0.1,0,0.1,0,0.1l-0.1,0.1c-0.1,0.1-0.2,0.3-0.3,0.5c-0.1,0-0.1,0.1-0.2,0.1l0,0
		c-0.1,0.2-0.3,0.3-0.6,0.5c0,0.1-0.2,0-0.4,0.2c-0.2,0.1-0.6,0.2-0.9,0.4c0,0,0,0,0,0c-0.3,0-0.5,0.2-0.6,0.2c-0.1,0-0.1,0-0.2,0
		c-0.2,0-0.3,0.1-0.3,0.1L55,42.5c-0.1,0-0.1,0-0.2,0c-0.1,0.2-0.5,0.1-0.8,0.2c-0.2,0-0.5,0.1-0.7,0.1c0,0,0,0-0.1,0l-0.1,0
		c-0.1,0-0.3,0-0.4,0c-0.1,0-0.1,0-0.2,0c-0.1,0-0.2,0-0.2,0l-0.1,0c0,0,0,0,0,0c0,0-0.1-0.1-0.2-0.1c0,0,0,0-0.1,0l0,0
		c-0.2,0.2-0.2,0.4-0.2,0.4l0,0.1c0,0.4,0.4,0.5,0.5,0.7l0,0.1c0.1,0.1,0.2,0.1,0.3,0.1c0.1,0,0.1,0,0.1,0c0,0,0.1,0,0.1,0
		c0,0,0.1,0.1,0.2,0.1c0,0,0.1,0,0.1,0l0.1,0c0.1,0,0.1-0.1,0.2-0.1c0.1,0,0.1,0,0.2,0c0.1,0,0.3,0,0.4-0.1C53.8,44,54,44,54.1,44
		c0,0,0.1,0,0.2,0l0.1,0c0.1-0.1,0.2-0.1,0.3-0.2C54.9,43.8,55.1,43.8,55.3,43.8 M67.8,50.8c0-0.1-0.1-0.1-0.2-0.1
		c-0.1,0-0.3,0-0.5-0.1c0,0-0.1,0-0.1,0c-0.1-0.1-0.2-0.1-0.3-0.1c-0.1-0.1-0.2-0.1-0.3-0.1c-0.1,0-0.1,0-0.2,0c0,0-0.1,0-0.2,0
		c0,0,0,0,0,0c-0.1,0-0.1,0-0.2,0c-0.1,0-0.2,0-0.2,0h0c-0.1-0.1-0.2-0.2-0.3-0.2c0,0-0.1,0-0.1,0l0,0c0,0-0.1,0-0.1,0
		c0,0-0.1,0-0.1,0.1l0,0c0,0-0.1,0-0.2,0c-0.1,0-0.2-0.1-0.3-0.1c0,0,0,0-0.1,0c0,0-0.1,0-0.1,0c-0.1,0-0.1,0-0.2,0v0
		c-0.3-0.1-0.5-0.1-0.6-0.3c0,0-0.1,0-0.1,0h0c0,0-0.1-0.1-0.3-0.2c0,0-0.1,0-0.1,0c0,0,0,0,0,0c0,0,0-0.1,0.1-0.1v0
		c0,0,0.2,0,0.4-0.1c0-0.1,0.2-0.1,0.4-0.1c0.2,0,0.3-0.1,0.5-0.2l0,0c0-0.1,0.1-0.1,0.1-0.2c0-0.2-0.1-0.3-0.1-0.4c0,0,0,0,0-0.1
		c0-0.1,0-0.1,0-0.2l0,0c0,0,0,0,0,0c0,0,0-0.1-0.2-0.1c-0.1,0-0.1,0-0.1,0.1l-0.1,0.1v0l0,0c-0.2,0-0.3,0.1-0.3,0.2
		c0,0.1-0.1,0.1-0.1,0.1c0,0-0.1,0-0.1,0.1c0,0-0.1,0.1-0.3,0.1c0,0-0.1,0-0.2,0.1l-0.1,0c-0.2,0.2-0.2,0.3-0.3,0.3
		c-0.1,0-0.1,0-0.1,0.1c0,0-0.2,0.1-0.3,0.1c0,0,0,0-0.1,0c0,0,0,0,0,0c0,0,0,0,0,0c-0.1-0.1-0.2-0.1-0.3-0.1h0
		c0-0.1-0.1-0.1-0.1-0.1c-0.1,0-0.2-0.2-0.5-0.2c-0.1-0.1-0.1-0.1-0.2-0.1c0,0,0,0,0,0c0,0,0-0.1-0.1-0.1c-0.1-0.1-0.1-0.1-0.2-0.1
		c-0.1,0-0.2-0.2-0.4-0.3c0.1,0,0.3,0,0.4,0c0.1,0,0.1,0,0.2,0c0.1,0,0.1,0,0.1,0c0.1,0,0.2,0,0.3,0c0,0,0.1,0,0.2-0.1
		c0.1,0,0.2,0,0.3,0c0,0,0.1,0,0.1,0c0.1,0,0.1,0,0.2,0c0,0,0.1,0,0.2,0c0,0,0.1,0,0.1,0h0c0.1,0,0.3,0,0.5-0.1l0.1-0.1
		c0.1-0.1,0.2-0.3,0.3-0.4c0.2-0.1,0.2-0.3,0.2-0.4c0-0.1,0-0.1,0-0.1c0.1,0,0.1-0.1,0.1-0.1c0-0.1,0-0.1,0-0.2
		c0-0.2-0.1-0.3-0.1-0.4c0,0,0.1-0.1,0.2-0.1c0-0.1,0.1-0.1,0.1-0.1c0,0,0,0,0,0c0-0.1,0-0.1,0-0.2c0,0,0,0,0-0.1c0,0,0-0.1,0-0.2
		c0,0,0,0,0-0.1c0.1-0.1,0.1-0.2,0.1-0.2c0-0.2-0.1-0.3-0.2-0.4c0-0.1-0.1-0.2-0.1-0.2c0,0,0,0,0,0l0,0c0,0-0.1-0.1-0.1-0.1
		c-0.1,0-0.2,0-0.2,0c-0.1,0-0.2,0-0.2,0c-0.4-0.1-0.7-0.1-0.9-0.2c-0.1,0-0.2,0-0.2,0.1c0,0-0.1,0-0.3-0.1l-0.1,0
		c-0.1,0-0.2,0.1-0.3,0.1c0-0.1,0.1-0.1,0.1-0.3c0,0,0.1-0.1,0.1-0.3c0,0,0,0,0-0.1c0,0,0,0,0,0c0-0.1,0.1-0.2,0.1-0.3c0,0,0,0,0,0
		c0-0.1,0-0.1-0.1-0.2C61.1,43.1,61,43.1,61,43l-0.1-0.1c-0.1,0-0.4-0.2-0.7-0.3c-0.1,0-0.2,0-0.2,0c-0.2,0-0.4,0-0.6,0l-0.1,0
		c-0.3,0.1-0.7,0.1-1.1,0.1c0,0,0,0-0.1,0c-0.3,0-0.6,0.1-0.8,0.2c-0.1,0-0.2,0.1-0.2,0.2c0,0.1,0,0.2,0,0.2c0,0.1,0,0.2,0.1,0.2
		c0.1,0.1,0.3,0.2,0.4,0.2l0,0c0,0,0.1,0,0.1,0c0.2,0,0.3-0.1,0.3-0.1h0c0,0,0.1,0,0.2,0c0.2-0.1,0.4,0,0.8-0.1c0.1,0,0.2,0,0.4,0
		c0,0,0.1,0,0.1,0c0.2,0,0.3,0,0.4,0c-0.1,0.3-0.2,0.5-0.3,0.7l-0.3,0.1c0,0,0,0-0.1,0c-0.3,0-0.5,0.1-0.7,0.1c-0.1,0-0.1,0-0.1,0
		l-0.1,0c-0.1,0-0.1,0-0.3,0c-0.1,0-0.2,0-0.4,0l0,0c0,0,0,0,0,0c0,0-0.1-0.1-0.4-0.1c-0.1,0-0.2,0-0.3,0.1
		c-0.2,0.1-0.2,0.2-0.3,0.3c0,0.1,0,0.1,0,0.1c-0.1,0-0.1,0.1-0.1,0.2c0,0.4,0.2,0.5,0.2,0.7c0,0,0,0,0,0.1l0,0.1
		c0.1,0.2,0.1,0.4,0.1,0.5c0,0.1,0,0.2-0.1,0.3l0,0.1c0,0.1-0.1,0.3-0.2,0.6c0,0.1-0.1,0.2-0.1,0.2c0,0.2,0.1,0.3,0.1,0.4
		c-0.1,0.3-0.1,0.6-0.2,0.9C56,49.3,56,49.4,56,49.5c0,0.1,0,0.2,0,0.2v0c-0.2,0.1-0.2,0.3-0.2,0.4c-0.1,0.1-0.2,0.3-0.2,0.3
		c0,0,0,0.1,0,0.1l-0.1,0c-0.1,0.1-0.3,0.1-0.6,0.3c-0.3,0.1-0.3,0.4-0.4,0.5c0,0-0.1,0.1-0.1,0.2c0,0.1,0.1,0.2,0.1,0.2l0,0
		c0,0.1,0.1,0.1,0.1,0.1c0.1,0,0.2,0,0.2,0c0.1,0,0.1,0,0.1,0c0,0,0,0,0.1,0c0.1,0,0.1,0,0.1-0.1c0.1-0.1,0.4-0.1,0.7-0.2
		c0,0,0,0,0,0c0,0,0.1,0,0.1,0c0.1,0,0.1,0,0.2-0.1c0,0,0.1,0,0.4-0.1l0.1-0.1c0,0,0,0,0.1,0c0,0,0.1,0,0.2,0h0.1
		c0.2-0.1,0.5-0.1,0.8-0.1c0.1,0.1,0.2,0.1,0.3,0.1c0,0,0.1,0,0.1,0c0.3,0.1,0.4,0.1,0.7,0.2l0.1,0c0.1,0,0.1,0,0.1,0
		c0,0,0.1,0,0.2,0c0.1,0,0.1,0,0.2,0c0.1,0,0.1,0,0.1-0.1c0.1-0.2,0.6-0.1,0.9-0.6c0.3-0.1,0.4-0.4,0.5-0.5l0-0.1
		c0-0.2-0.1-0.3-0.2-0.4c-0.1,0-0.1,0-0.2,0c0,0-0.1,0-0.1,0.1c0,0-0.1,0-0.2,0.1c-0.3,0.1-0.4,0.2-0.6,0.3c-0.2,0-0.4,0.1-0.6,0.1
		l-0.1,0c0,0-0.1,0-0.1,0.1c0,0-0.1-0.1-0.2-0.1l-0.1,0c-0.1,0-0.2,0.1-0.2,0.1c0,0,0,0-0.1,0c0,0-0.1,0-0.2,0c0,0-0.1,0-0.1,0
		c0,0,0,0-0.1,0c-0.1,0-0.1,0-0.2,0c-0.1,0-0.3,0-0.4,0c-0.1,0-0.2,0-0.3,0c-0.1,0-0.2,0-0.2,0c0,0,0,0-0.1,0c-0.1,0-0.2,0-0.3,0
		c0,0-0.1-0.1-0.1-0.1c0,0,0.1-0.1,0.1-0.1c0.1-0.1,0.1-0.1,0.1-0.2l0,0c0,0,0,0,0,0c0,0,0.1-0.1,0.2-0.2l0-0.1l0-0.2
		c0.2-0.2,0.3-0.6,0.3-0.9c0-0.1,0-0.2,0-0.2c0.1-0.2,0.1-0.3,0.1-0.3l1-0.1c0,0,0.1,0,0.1,0c0.2,0,0.3-0.1,0.4-0.1c0,0,0,0,0,0
		l0.1,0c0,0,0,0,0,0c0,0,0,0,0,0c0,0,0,0.1,0,0.1c0,0,0,0.1-0.1,0.2c0,0.1,0,0.1,0,0.2c0,0,0.1,0.1,0.1,0.2c0.1,0.1,0.1,0.2,0.3,0.2
		c0.1,0,0.1,0,0.1,0c0,0,0,0,0,0c0,0,0.1,0.1,0.3,0.1l0,0c0.2,0,0.3,0.3,0.7,0.4c0.1,0,0.1,0,0.2,0c0,0,0,0,0,0l0,0l0.1,0.1
		c0.3,0.2,0.6,0.2,0.9,0.4c0.1,0.1,0.2,0.1,0.2,0.1c0,0,0.1,0,0.1,0c0.1,0.1,0.1,0.1,0.1,0.1c0,0,0,0,0,0c0,0.1,0.1,0.1,0.2,0.1h0
		c0,0,0,0,0.1,0c0,0,0.1,0.1,0.2,0.1c0.1,0.1,0.2,0.1,0.2,0.1c0.2,0.3,0.5,0.3,0.5,0.4l0.1,0.1c0,0,0.1,0.1,0.3,0.2
		c0.2,0.1,0.3,0.2,0.3,0.3c0,0.1,0.1,0.1,0.2,0.1c0,0,0,0,0,0c0,0,0.1,0.1,0.3,0.2l0.1,0c0.1,0,0.3,0.1,0.6,0.1c0.1,0,0.1,0,0.2,0
		c0.1,0,0.1-0.1,0.1-0.1l0,0c0,0,0.2,0,0.4-0.1l0.1-0.1c0.2,0,0.3,0,0.5-0.1c0.1,0,0.1-0.1,0.1-0.1l0,0c0,0,0.1,0,0.3-0.1
		c0.3,0,0.3-0.2,0.4-0.2c0,0,0.1,0,0.1-0.1c0-0.1,0.1-0.1,0.2-0.2C67.8,50.9,67.8,50.8,67.8,50.8 M59.6,46.9
		C59.6,46.9,59.5,46.9,59.6,46.9c-0.1,0-0.2,0-0.2,0c-0.1,0-0.1,0-0.2,0c0,0-0.1,0-0.1,0c-0.1,0-0.1,0-0.2,0c0,0,0,0-0.1,0
		c0,0-0.1,0-0.2,0c0,0,0,0,0,0c0,0-0.1-0.1-0.3-0.1h0c-0.1,0-0.1,0-0.2,0c-0.1,0-0.2,0-0.3,0l-0.1,0c0,0,0,0,0.1,0c0,0,0,0-0.1,0
		c0,0-0.1,0-0.1,0c0,0,0,0,0-0.1c0,0,0,0,0,0c0,0,0,0,0,0l0-0.1h0c0,0,0,0,0,0c0,0,0,0,0,0H58c0.2-0.1,0.4-0.1,0.6-0.2
		c0,0,0.1,0,0.1,0c0,0,0,0,0,0c0.1,0,0.1,0.1,0.2,0.1c0.2,0,0.3-0.1,0.4-0.1c0,0,0,0,0,0l0.1,0c0.1,0,0.1,0,0.2,0c0.1,0,0.2,0,0.2,0
		c0.1,0,0.1,0,0.2,0c0,0,0.1,0,0.1,0c0,0,0.1,0,0.1,0c0.1,0,0.2,0,0.4,0l0.1,0c0.2-0.1,0.7,0.1,1.1-0.3c0.1,0,0.2-0.1,0.2-0.2l0-0.1
		c0,0,0,0,0,0c0-0.2-0.1-0.3-0.2-0.3c-0.1,0-0.1,0-0.1,0c0,0-0.1-0.1-0.1-0.1c0,0-0.1,0-0.1,0c-0.2,0-0.3,0.1-0.4,0.1
		c-0.1,0-0.2,0-0.2,0c-0.2,0-0.4,0-0.6,0c-0.2,0-0.3,0-0.5,0.1c0,0,0,0-0.1,0c-0.1,0-0.1,0-0.2,0c0,0,0,0,0,0c-0.1,0-0.1,0-0.2,0
		c0,0,0,0-0.1,0c-0.1,0-0.2,0-0.3,0c-0.2,0-0.5,0.1-0.6,0.1c0,0,0,0,0,0l-0.1,0c-0.1,0-0.1,0-0.2,0h0c0,0,0,0-0.1,0
		c0-0.1,0-0.2-0.1-0.3c0,0,0,0,0,0c0.1,0,0.1,0,0.2-0.1c0.1,0,0.2,0,0.2,0c0.1,0,0.2,0,0.3,0c0.1,0,0.1,0,0.2,0c0.1,0,0.3,0,0.4-0.1
		c0.1,0,0.2,0,0.4,0c0.1,0,0.2,0,0.3,0c0.2,0,0.4,0,0.6,0c0.3,0,0.6,0,0.9-0.1l0,0c0,0,0.1,0,0.1,0c0.1,0,0.1,0,0.2,0
		c0.2,0,0.2-0.1,0.3-0.1c0.1,0,0.1,0,0.1,0c0.2,0.1,0.3,0.1,0.4,0.1c0,0,0,0.1,0,0.1c0,0,0,0,0,0h0l0,0.1c0,0.1,0,0.3,0.1,0.6
		c0,0,0,0,0,0c0,0.1-0.1,0.3-0.1,0.6c0,0,0,0.1-0.1,0.1c0,0-0.1,0-0.2,0c-0.1,0-0.1,0-0.2,0c-0.1,0-0.2-0.1-0.4-0.1
		c-0.1,0-0.2,0-0.3,0.1c0,0,0,0,0,0c-0.2,0-0.3,0.1-0.4,0.1c-0.1,0-0.1,0-0.2,0C60.2,46.8,59.9,46.9,59.6,46.9"/>
</g>
</svg>
