<?xml version="1.0" encoding="utf-8"?>
<!-- Generator: Adobe Illustrator 19.0.0, SVG Export Plug-In . SVG Version: 6.00 Build 0)  -->
<svg version="1.1" id="圖層_1" xmlns="http://www.w3.org/2000/svg" xmlns:xlink="http://www.w3.org/1999/xlink" x="0px" y="0px"
	 viewBox="0 0 72 72" style="enable-background:new 0 0 72 72;" xml:space="preserve">
<g>
	<g id="XMLID_88_">
		<path id="XMLID_89_" d="M36,60.7l2.3-3.5c1.7-2.6,16.4-25.5,16.4-35.5C54.6,10.9,46.3,2,36,2c-10.3,0-18.6,8.9-18.6,19.8
			c0,9.9,14.7,32.9,16.4,35.5L36,60.7z M36,7.8c7.2,0,13.1,6.3,13.1,13.9c0,5.4-7.3,19.1-13.1,28.6c-5.8-9.5-13.1-23.2-13.1-28.6
			C22.9,14.1,28.8,7.8,36,7.8z M51.8,46.4l-2.6-0.8l-1.6,5.6l2.6,0.8c5.5,1.7,7.5,4,7.5,5.1c0,2.4-7.6,7.1-21.7,7.1
			c-6.1,0-12-0.9-16.3-2.7c-3.7-1.5-5.4-3.3-5.4-4.3c0-1.1,1.9-3.3,7.3-5.1l2.6-0.9l-1.6-5.6L20,46.5c-7.2,2.4-11.2,6.2-11.2,10.7
			c0,2.3,1.2,6.6,8.9,9.8c4.9,2,11.3,3.1,18.1,3.1H36c13.5,0,27.2-4.5,27.2-13C63.2,52.5,59.1,48.7,51.8,46.4z M41.5,21.2
			c0-3.2-2.5-5.8-5.5-5.8c-3,0-5.5,2.6-5.5,5.8c0,3.2,2.5,5.8,5.5,5.8C39,27,41.5,24.4,41.5,21.2z"/>
	</g>
</g>
</svg>
