<?xml version="1.0" encoding="utf-8"?>
<!-- Generator: Adobe Illustrator 19.0.0, SVG Export Plug-In . SVG Version: 6.00 Build 0)  -->
<svg version="1.1" id="圖層_1" xmlns="http://www.w3.org/2000/svg" xmlns:xlink="http://www.w3.org/1999/xlink" x="0px" y="0px"
	 viewBox="0 0 72 72" style="enable-background:new 0 0 72 72;" xml:space="preserve">
<g>
	<g>
		<path d="M36,42C20.1,42,7.1,54.6,7.1,70h6.9c0-11.6,9.8-21.1,21.9-21.1c12.1,0,21.9,9.5,21.9,21.1h6.9C64.9,54.6,51.9,42,36,42z
			 M36,39.8c10.5,0,19.1-8.5,19.1-18.9C55.1,10.5,46.5,2,36,2c-10.5,0-19,8.5-19,18.9C17,31.3,25.5,39.8,36,39.8z M36,8.9
			c6.7,0,12.1,5.4,12.1,12c0,6.6-5.4,12-12.1,12c-6.7,0-12.1-5.4-12.1-12C23.9,14.3,29.3,8.9,36,8.9z"/>
	</g>
</g>
</svg>
