<?xml version="1.0" encoding="utf-8"?>
<!-- Generator: Adobe Illustrator 19.0.0, SVG Export Plug-In . SVG Version: 6.00 Build 0)  -->
<svg version="1.1" id="圖層_1" xmlns="http://www.w3.org/2000/svg" xmlns:xlink="http://www.w3.org/1999/xlink" x="0px" y="0px"
	 viewBox="0 0 72 72" style="enable-background:new 0 0 72 72;" xml:space="preserve">
<g>
	<g>
		<path d="M20.5,5c-3.4-2.8-7-2.9-7.7-2.9c-0.1,0-0.1,0-0.1,0c-1,0-1.8,0.9-1.8,1.8v64.2c0,1,0.8,1.8,1.9,1.8h7c1,0,1.9-0.8,1.9-1.8
			V38.2h3.6c1,0,1.9-0.8,1.9-1.8V23C27.1,14.6,24.9,8.6,20.5,5z M23.3,34.5h-3.6c-1,0-1.9,0.8-1.9,1.8v29.9h-3.2V6.1
			c1,0.3,2.2,0.8,3.5,1.8c3.4,2.7,5.2,8,5.2,15.1V34.5z M59.2,2c-1,0-1.9,0.8-1.9,1.8v25.6h-4.7c-1,0-1.9,0.8-1.9,1.8v35h-4.1v-35
			c0-1-0.8-1.8-1.9-1.8h-4.7V3.8c0-1-0.8-1.8-1.9-1.8c-1,0-1.9,0.8-1.9,1.8v27.4c0,1,0.8,1.8,1.9,1.8h4.7v35c0,1,0.8,1.8,1.9,1.8
			h7.9c1,0,1.9-0.8,1.9-1.8v-35h4.7c1,0,1.9-0.8,1.9-1.8V3.8C61.1,2.8,60.3,2,59.2,2z M48.7,27.1c1,0,1.9-0.8,1.9-1.8V3.8
			c0-1-0.8-1.8-1.9-1.8c-1,0-1.9,0.8-1.9,1.8v21.4C46.9,26.2,47.7,27.1,48.7,27.1z"/>
	</g>
</g>
</svg>
