<?xml version="1.0" encoding="utf-8"?>
<!-- Generator: Adobe Illustrator 19.0.0, SVG Export Plug-In . SVG Version: 6.00 Build 0)  -->
<svg version="1.1" id="圖層_1" xmlns="http://www.w3.org/2000/svg" xmlns:xlink="http://www.w3.org/1999/xlink" x="0px" y="0px"
	 viewBox="0 0 72 72" style="enable-background:new 0 0 72 72;" xml:space="preserve">
<g>
	<path d="M31.3,41.7c3.9-2,7.9-4.1,11.8-6.1c-4-2.1-7.9-4.1-11.8-6.2V41.7z"/>
	<path d="M54.7,2H17.3C8.8,2,2,8.8,2,17.3v37.5C2,63.2,8.8,70,17.3,70h37.5C63.2,70,70,63.2,70,54.7V17.3C70,8.8,63.2,2,54.7,2z
		 M53.8,46.3c-0.4,0.9-1.2,1.6-2.1,2.1c-2.5,1.3-27.7,1.3-30.9,0.2c-1.4-0.5-2.4-1.4-2.9-2.8c-1.3-3.5-1.6-18,0.8-20.9
		c0.8-1,1.9-1.6,3.2-1.7c6.6-0.7,26.9-0.6,29.2,0.2c1.4,0.5,2.3,1.4,2.9,2.8C55.4,29.7,55.4,42.8,53.8,46.3z"/>
</g>
</svg>
