<?xml version="1.0" encoding="utf-8"?>
<!-- Generator: Adobe Illustrator 19.0.0, SVG Export Plug-In . SVG Version: 6.00 Build 0)  -->
<svg version="1.1" id="圖層_1" xmlns="http://www.w3.org/2000/svg" xmlns:xlink="http://www.w3.org/1999/xlink" x="0px" y="0px"
	 viewBox="-261 384.9 72 72" style="enable-background:new -261 384.9 72 72;" xml:space="preserve">
<style type="text/css">
	.st0{fill:#231815;}
</style>
<path id="XMLID_24_" class="st0" d="M-194.2,448.8l-15.7-16.8c4-4.9,6.2-11.2,6.2-17.6c0-15.1-11.9-27.5-26.6-27.5
	c-14.6,0-26.6,12.3-26.6,27.5c0,15.1,11.9,27.5,26.6,27.5c5.5,0,10.7-1.7,15.2-5l15.8,17c0.7,0.7,1.5,1.1,2.5,1.1
	c0.9,0,1.8-0.4,2.4-1C-192.9,452.5-192.9,450.3-194.2,448.8z M-230.2,394.1c10.8,0,19.6,9.1,19.6,20.3c0,11.2-8.8,20.3-19.6,20.3
	c-10.8,0-19.6-9.1-19.6-20.3C-249.8,403.2-241,394.1-230.2,394.1z"/>
</svg>
